<svg width="90" height="90" viewBox="0 0 90 90" fill="none" xmlns="http://www.w3.org/2000/svg">
<g filter="url(#filter0_d_98_2)">
<path d="M41 66C54.8072 66 66 54.8072 66 41C66 27.1928 54.8072 16 41 16C27.1928 16 16 27.1928 16 41C16 54.8072 27.1928 66 41 66Z" fill="#777777"/>
</g>
<g filter="url(#filter1_d_98_2)">
<mask id="mask0_98_2" style="mask-type:alpha" maskUnits="userSpaceOnUse" x="16" y="16" width="50" height="50">
<path d="M41 66C54.8072 66 66 54.8072 66 41C66 27.1928 54.8072 16 41 16C27.1928 16 16 27.1928 16 41C16 54.8072 27.1928 66 41 66Z" fill="white"/>
</mask>
<g mask="url(#mask0_98_2)">
<path fill-rule="evenodd" clip-rule="evenodd" d="M41 57.1198C47.076 57.1198 52 60.0198 52 63.5798C52 67.1398 47.076 67.7198 41 67.7198C34.924 67.7198 30 67.1398 30 63.5798C30 60.0198 34.926 57.1198 41 57.1198ZM49.942 41.6946C51.4866 45.235 50.732 49.3584 48.0338 52.1226C45.3354 54.8868 41.2314 55.7406 37.6546 54.2818C34.078 52.823 31.7416 49.3426 31.746 45.4798C31.7156 42.9954 32.6736 40.6008 34.4092 38.8228C36.1446 37.0448 38.5156 36.0294 41 35.9998C44.8616 35.9022 48.3974 38.154 49.942 41.6946Z" fill="white"/>
</g>
</g>
<defs>
<filter id="filter0_d_98_2" x="0" y="0" width="90" height="90" filterUnits="userSpaceOnUse" color-interpolation-filters="sRGB">
<feFlood flood-opacity="0" result="BackgroundImageFix"/>
<feColorMatrix in="SourceAlpha" type="matrix" values="0 0 0 0 0 0 0 0 0 0 0 0 0 0 0 0 0 0 127 0" result="hardAlpha"/>
<feOffset dx="4" dy="4"/>
<feGaussianBlur stdDeviation="10"/>
<feComposite in2="hardAlpha" operator="out"/>
<feColorMatrix type="matrix" values="0 0 0 0 0 0 0 0 0 0 0 0 0 0 0 0 0 0 0.25 0"/>
<feBlend mode="normal" in2="BackgroundImageFix" result="effect1_dropShadow_98_2"/>
<feBlend mode="normal" in="SourceGraphic" in2="effect1_dropShadow_98_2" result="shape"/>
</filter>
<filter id="filter1_d_98_2" x="14" y="19.9968" width="62" height="70.0032" filterUnits="userSpaceOnUse" color-interpolation-filters="sRGB">
<feFlood flood-opacity="0" result="BackgroundImageFix"/>
<feColorMatrix in="SourceAlpha" type="matrix" values="0 0 0 0 0 0 0 0 0 0 0 0 0 0 0 0 0 0 127 0" result="hardAlpha"/>
<feOffset dx="4" dy="4"/>
<feGaussianBlur stdDeviation="10"/>
<feComposite in2="hardAlpha" operator="out"/>
<feColorMatrix type="matrix" values="0 0 0 0 0 0 0 0 0 0 0 0 0 0 0 0 0 0 0.25 0"/>
<feBlend mode="normal" in2="BackgroundImageFix" result="effect1_dropShadow_98_2"/>
<feBlend mode="normal" in="SourceGraphic" in2="effect1_dropShadow_98_2" result="shape"/>
</filter>
</defs>
</svg>
